<svg width="757" height="757" viewBox="0 0 757 757" fill="none" xmlns="http://www.w3.org/2000/svg">
<path d="M67.0399 385.268L500.453 635.502L702.314 518.954L268.917 268.735L67.0399 385.268Z" fill="#E0E0E0"/>
<path d="M104.194 495.35C120.482 495.35 133.686 487.725 133.686 478.318C133.686 468.911 120.482 461.286 104.194 461.286C87.9051 461.286 74.7008 468.911 74.7008 478.318C74.7008 487.725 87.9051 495.35 104.194 495.35Z" fill="#E0E0E0"/>
<path d="M542.057 362.891C580.094 362.891 610.929 345.091 610.929 323.133C610.929 301.175 580.094 283.375 542.057 283.375C504.021 283.375 473.186 301.175 473.186 323.133C473.186 345.091 504.021 362.891 542.057 362.891Z" fill="#E0E0E0"/>
<path d="M603.446 312.575C637.348 278.672 637.348 223.705 603.446 189.803C569.543 155.9 514.576 155.9 480.674 189.803C446.771 223.705 446.771 278.672 480.674 312.575C514.576 346.477 569.543 346.477 603.446 312.575Z" fill="#D6601D"/>
<path opacity="0.3" d="M603.446 312.575C637.348 278.672 637.348 223.705 603.446 189.803C569.543 155.9 514.576 155.9 480.674 189.803C446.771 223.705 446.771 278.672 480.674 312.575C514.576 346.477 569.543 346.477 603.446 312.575Z" fill="black"/>
<path opacity="0.1" d="M520.059 177.668C511.944 181.635 503.935 188.947 504.707 197.94C505.042 200.356 505.851 202.682 507.087 204.784C508.324 206.886 509.964 208.723 511.914 210.189C515.827 213.089 520.109 215.457 524.646 217.229L570.339 237.41C574.75 239.594 579.435 241.172 584.268 242.104C586.69 242.551 589.178 242.504 591.582 241.966C593.987 241.427 596.257 240.408 598.257 238.97C604.464 233.974 605.07 224.708 603.571 216.88C596.349 179.242 553.458 161.317 520.059 177.668Z" fill="white"/>
<g opacity="0.2">
<path opacity="0.2" d="M502.057 183.845C502.89 188.024 506.448 191.415 512.065 193.277C518.316 195.013 524.888 195.252 531.249 193.973C537.609 192.695 543.579 189.936 548.674 185.919C553.125 182.013 555.108 177.547 554.275 173.353C553.503 169.523 550.43 166.404 545.615 164.451C543.753 164.375 541.891 164.36 540.013 164.451C541.291 164.677 542.551 164.996 543.783 165.404C548.855 167.115 552.065 170.068 552.792 173.701C553.518 177.335 551.702 181.271 547.674 184.829C539.12 192.399 523.359 195.533 512.549 191.884C507.462 190.174 504.268 187.221 503.465 183.588C502.663 179.954 504.54 176.018 508.568 172.46C509.827 171.362 511.185 170.384 512.625 169.538C510.763 170.189 508.946 170.931 507.16 171.703C503.087 175.488 501.24 179.787 502.057 183.845Z" fill="black"/>
<path opacity="0.2" d="M462.694 286.344L462.557 286.04L462.694 286.344Z" fill="black"/>
<path opacity="0.2" d="M619.953 212.823C620.089 213.096 620.21 213.368 620.346 213.625L619.953 212.823Z" fill="black"/>
<path opacity="0.2" d="M463.738 288.674L464.359 289.901L463.738 288.674Z" fill="black"/>
<path opacity="0.2" d="M624.419 278.576C620.969 284.619 616.497 290.019 611.202 294.534C582.89 319.454 530.778 329.946 495.078 317.94C488.442 315.819 482.227 312.555 476.713 308.296C478.303 310.128 479.968 311.869 481.694 313.549C485.782 315.928 490.104 317.876 494.593 319.363C512.761 325.419 534.942 325.873 556.228 321.589C577.515 317.304 597.894 308.356 612.246 295.745C615.81 292.641 619.042 289.175 621.891 285.404C622.799 283.118 623.647 280.908 624.419 278.576Z" fill="black"/>
<path opacity="0.2" d="M609.127 268.538C579.332 294.776 524.495 305.783 486.902 293.08C472.61 288.266 462.497 280.635 457.606 271.157C458 272.868 458.439 274.564 458.939 276.229C464.616 284.026 473.988 290.325 486.418 294.518C505.449 300.938 528.81 301.377 551.232 296.88C573.654 292.384 595.047 282.951 610.127 269.628C619.983 260.953 626.19 251.46 628.401 242.119C628.219 240.408 627.977 238.682 627.689 236.971C626.796 247.645 620.437 258.591 609.127 268.538Z" fill="black"/>
<path opacity="0.2" d="M628.779 255.624C628.779 255.972 628.779 256.32 628.704 256.668C628.734 256.32 628.749 255.972 628.779 255.624Z" fill="black"/>
<path opacity="0.2" d="M593.064 180.953L593.851 181.513L593.064 180.953Z" fill="black"/>
<path opacity="0.2" d="M486.539 242.134C502.421 247.494 521.936 247.857 540.634 244.102C559.332 240.347 577.212 232.49 589.794 221.392C600.18 212.308 605.721 202.074 605.812 192.233C605.297 191.672 604.767 191.142 604.298 190.613C604.843 200.499 599.483 210.9 588.855 220.257C563.98 242.104 518.333 251.324 487.023 240.726C473.594 236.184 464.631 228.69 461.285 219.348C461.013 220.045 460.725 220.741 460.468 221.453C464.389 230.461 473.413 237.698 486.539 242.134Z" fill="black"/>
<path opacity="0.2" d="M455.714 242.967C459.514 253.989 469.961 262.8 485.555 268.054C503.284 274.11 525.085 274.458 545.963 270.264C566.841 266.07 586.841 257.289 600.861 244.905C613.23 234.034 619.438 221.862 618.681 210.219C618.045 209.038 617.394 207.872 616.698 206.722C619.12 218.924 613.14 232.081 599.862 243.784C572.11 268.19 521.043 278.44 486.039 266.631C469.264 260.968 458.666 251.157 456.183 238.985C455.986 240.302 455.835 241.619 455.699 242.952L455.714 242.967Z" fill="black"/>
<path opacity="0.2" d="M455.335 247.115C455.335 246.555 455.335 245.995 455.441 245.435C455.396 245.995 455.366 246.555 455.335 247.115Z" fill="black"/>
<path opacity="0.2" d="M590.611 179.227L589.854 178.713L590.611 179.227Z" fill="black"/>
<path opacity="0.2" d="M493.988 216.169C506.1 220.272 521.043 220.544 535.335 217.683C549.627 214.821 563.284 208.811 572.897 200.348C581.618 192.656 585.872 184.027 585.085 175.821C584.525 175.503 583.995 175.185 583.435 174.882C584.692 182.921 580.634 191.536 571.898 199.212C553.019 215.866 518.288 222.785 494.472 214.746C483.45 211.021 476.304 204.663 474.442 196.775C474.048 197.259 473.655 197.774 473.276 198.289C475.714 206.131 482.966 212.46 493.988 216.169Z" fill="black"/>
<path opacity="0.2" d="M467.357 206.964L467.962 205.965L467.357 206.964Z" fill="black"/>
<path opacity="0.2" d="M470.052 202.709C469.84 203.012 469.643 203.33 469.431 203.648L470.052 202.709Z" fill="black"/>
</g>
<path opacity="0.1" d="M519.938 300.892C468.22 281.029 460.498 242.891 464.586 212.127C458.866 223.478 455.708 235.947 455.336 248.653C454.964 261.359 457.387 273.992 462.433 285.658C467.479 297.325 475.026 307.741 484.54 316.171C494.054 324.601 505.304 330.838 517.493 334.443C529.683 338.048 542.515 338.931 555.084 337.032C567.652 335.133 579.65 330.496 590.23 323.451C600.81 316.405 609.714 307.122 616.312 296.257C622.911 285.393 627.042 273.211 628.416 260.575C624.419 287.16 571.611 320.741 519.938 300.892Z" fill="black"/>
<path d="M67.0399 374.382L500.453 624.616L702.314 508.068L268.917 257.834L67.0399 374.382Z" fill="#D6601D"/>
<path opacity="0.8" d="M67.0399 374.382L500.453 624.616L702.314 508.068L268.917 257.834L67.0399 374.382Z" fill="white"/>
<path opacity="0.05" d="M519.302 538.227C523.844 539.075 528.855 539.014 532.928 541.255C535.61 543.067 538.141 545.092 540.498 547.311C547.892 554.2 557.645 557.992 567.75 557.909C577.319 558.136 599.438 551.853 599.544 539.393C599.65 531.641 591.005 527.281 583.829 524.253C542.995 507.542 507.198 480.519 479.938 445.828C469.809 432.883 460.483 418.576 446.342 410.158C437.334 404.813 426.978 402.3 416.865 399.56C361.659 384.654 308.969 361.643 260.514 331.278C269.476 313.618 275.703 294.7 278.985 275.17C267.206 271.051 255.806 281.226 244.163 285.768C235.079 289.325 225.995 289.204 216.911 287.796L178.334 310.067C179.939 315.73 182.513 321.241 184.269 326.888C186.964 335.487 187.297 346.131 180.529 352.141C176.669 355.593 171.324 356.683 166.237 357.728L145.041 361.937C138.985 363.133 131.991 365.056 129.629 370.763C126.737 377.743 132.884 385.192 139.333 389.143C151.339 396.517 165.647 398.894 178.879 403.723C209.901 415.033 234.186 439.454 263.073 455.441C283.152 466.544 305.272 473.466 328.099 475.79C351.672 478.197 375.699 475.653 398.939 480.18C417.213 483.738 435.805 488.734 453.716 494.124C463.454 496.874 472.782 500.912 481.452 506.13C485.771 508.804 489.778 511.952 493.398 515.517C496.865 518.984 499.226 523.481 502.27 527.341C506.948 533.412 512.095 536.864 519.302 538.227Z" fill="black"/>
<path d="M67.0399 374.382V378.318L500.453 628.537V624.616L67.0399 374.382Z" fill="#D6601D"/>
<path opacity="0.6" d="M67.0399 374.382V378.318L500.453 628.537V624.616L67.0399 374.382Z" fill="white"/>
<path d="M500.453 624.616L702.314 508.068V512.005L500.453 628.537V624.616Z" fill="#D6601D"/>
<path opacity="0.45" d="M500.453 624.616L702.314 508.068V512.005L500.453 628.537V624.616Z" fill="white"/>
<path d="M124.95 441.937C124.1 438.852 122.944 435.859 121.499 433.004C121.362 432.686 121.196 432.368 121.029 432.035C119.654 429.368 118.959 426.403 119.004 423.403C119.049 420.403 119.833 417.461 121.287 414.836C121.377 414.654 121.483 414.473 121.589 414.291C123.376 411.245 124.298 407.769 124.254 404.238C124.147 402.289 123.564 400.397 122.556 398.726C121.548 397.055 120.145 395.657 118.471 394.654C117.608 394.16 116.712 393.725 115.791 393.352C114.935 393.022 114.199 392.44 113.68 391.683C113.161 390.927 112.884 390.031 112.884 389.113V383.859H96.0936V389.098C96.0916 390.019 95.8096 390.918 95.285 391.675C94.7605 392.432 94.0181 393.012 93.1564 393.337C92.2277 393.693 91.3269 394.119 90.4615 394.609C88.781 395.6 87.3685 396.988 86.3472 398.65C85.3259 400.313 84.7269 402.2 84.6023 404.147C84.5277 407.701 85.4227 411.208 87.1913 414.291C87.2821 414.473 87.3881 414.639 87.4789 414.806C88.9168 417.45 89.6813 420.408 89.7051 423.418C89.7289 426.429 89.0111 429.398 87.6152 432.065C87.4487 432.383 87.2973 432.701 87.1459 433.019C85.6775 435.857 84.4958 438.834 83.6182 441.906C83.019 444.896 82.7449 447.942 82.8007 450.99L82.7098 475.426C82.7098 478.591 84.7689 481.77 88.9475 484.192C92.679 486.24 96.8125 487.45 101.06 487.735C103.075 487.901 105.1 487.901 107.116 487.735C111.353 487.465 115.484 486.288 119.228 484.283C123.421 481.891 125.526 478.727 125.541 475.563V457.894C125.541 455.699 125.647 453.352 125.647 451.096C125.759 448.027 125.525 444.954 124.95 441.937Z" fill="#D6601D"/>
<path opacity="0.3" d="M124.95 441.937C124.1 438.852 122.944 435.859 121.499 433.004C121.362 432.686 121.196 432.368 121.029 432.035C119.654 429.368 118.959 426.403 119.004 423.403C119.049 420.403 119.833 417.461 121.287 414.836C121.377 414.654 121.483 414.473 121.589 414.291C123.376 411.245 124.298 407.769 124.254 404.238C124.147 402.289 123.564 400.397 122.556 398.726C121.548 397.055 120.145 395.657 118.471 394.654C117.608 394.16 116.712 393.725 115.791 393.352C114.935 393.022 114.199 392.44 113.68 391.683C113.161 390.927 112.884 390.031 112.884 389.113V383.859H96.0936V389.098C96.0916 390.019 95.8096 390.918 95.285 391.675C94.7605 392.432 94.0181 393.012 93.1564 393.337C92.2277 393.693 91.3269 394.119 90.4615 394.609C88.781 395.6 87.3685 396.988 86.3472 398.65C85.3259 400.313 84.7269 402.2 84.6023 404.147C84.5277 407.701 85.4227 411.208 87.1913 414.291C87.2821 414.473 87.3881 414.639 87.4789 414.806C88.9168 417.45 89.6813 420.408 89.7051 423.418C89.7289 426.429 89.0111 429.398 87.6152 432.065C87.4487 432.383 87.2973 432.701 87.1459 433.019C85.6775 435.857 84.4958 438.834 83.6182 441.906C83.019 444.896 82.7449 447.942 82.8007 450.99L82.7098 475.426C82.7098 478.591 84.7689 481.77 88.9475 484.192C92.679 486.24 96.8125 487.45 101.06 487.735C103.075 487.901 105.1 487.901 107.116 487.735C111.353 487.465 115.484 486.288 119.228 484.283C123.421 481.891 125.526 478.727 125.541 475.563V457.894C125.541 455.699 125.647 453.352 125.647 451.096C125.759 448.027 125.525 444.954 124.95 441.937Z" fill="black"/>
<path opacity="0.1" d="M121.287 414.836C121.377 414.654 121.483 414.473 121.589 414.291C123.091 411.681 123.966 408.758 124.148 405.752C123.789 406.966 123.28 408.131 122.634 409.219C120.57 412.258 118.011 414.929 115.064 417.122C112.187 419.469 109.008 422.133 108.645 425.828C108.281 429.522 110.81 432.656 113.686 434.821C116.563 436.986 119.909 438.5 122.498 441.013C123.599 442.122 124.579 443.345 125.42 444.662C125.32 443.757 125.174 442.857 124.981 441.967C124.123 438.87 122.956 435.868 121.498 433.004C121.362 432.686 121.196 432.368 121.029 432.035C119.654 429.368 118.959 426.403 119.004 423.403C119.049 420.403 119.833 417.461 121.287 414.836Z" fill="black"/>
<path d="M93.2624 389.582V392.398C93.3491 393.405 93.7019 394.37 94.2845 395.194C94.8672 396.019 95.6588 396.674 96.578 397.092C99.0809 398.354 101.845 399.011 104.648 399.011C107.451 399.011 110.214 398.354 112.717 397.092C113.703 396.561 114.556 395.816 115.215 394.912C115.751 394.199 116.048 393.335 116.063 392.444V389.582C116.064 389.327 116.033 389.073 115.972 388.825C115.751 387.977 115.347 387.188 114.791 386.511C114.234 385.834 113.537 385.285 112.748 384.904L112.581 384.813C110.099 383.581 107.366 382.94 104.595 382.94C101.824 382.94 99.0902 383.581 96.6083 384.813C95.8194 385.19 95.1198 385.731 94.556 386.399C93.9922 387.068 93.577 387.848 93.3381 388.689C93.2852 388.984 93.2599 389.283 93.2624 389.582Z" fill="#D6601D"/>
<path opacity="0.1" d="M93.2624 389.582V392.398C93.3491 393.405 93.7019 394.37 94.2845 395.194C94.8672 396.019 95.6588 396.674 96.578 397.092C99.0809 398.354 101.845 399.011 104.648 399.011C107.451 399.011 110.214 398.354 112.717 397.092C113.703 396.561 114.556 395.816 115.215 394.912C115.751 394.199 116.048 393.335 116.063 392.444V389.582C116.064 389.327 116.033 389.073 115.972 388.825C115.751 387.977 115.347 387.188 114.791 386.511C114.234 385.834 113.537 385.285 112.748 384.904L112.581 384.813C110.099 383.581 107.366 382.94 104.595 382.94C101.824 382.94 99.0902 383.581 96.6083 384.813C95.8194 385.19 95.1198 385.731 94.556 386.399C93.9922 387.068 93.577 387.848 93.3381 388.689C93.2852 388.984 93.2599 389.283 93.2624 389.582Z" fill="black"/>
<path opacity="0.2" d="M112.717 394.276C117.259 391.732 117.259 387.554 112.717 384.98C110.224 383.703 107.465 383.031 104.664 383.018C101.863 383.005 99.0983 383.651 96.5932 384.904C92.1421 387.463 92.0512 391.626 96.5932 394.215C99.0865 395.493 101.846 396.165 104.648 396.175C107.45 396.186 110.214 395.535 112.717 394.276Z" fill="black"/>
<path d="M93.2775 386.282V387.978C93.2477 388.244 93.2477 388.513 93.2775 388.78C93.5048 389.624 93.9121 390.409 94.4714 391.08C95.0306 391.752 95.7287 392.295 96.5175 392.671C98.7099 393.864 101.153 394.523 103.648 394.594C106.766 394.822 109.885 394.177 112.657 392.732C113.662 392.22 114.546 391.497 115.246 390.612C115.612 390.113 115.866 389.539 115.988 388.932C116.055 388.675 116.086 388.41 116.078 388.144V386.403C115.991 385.399 115.637 384.437 115.055 383.615C114.472 382.792 113.681 382.14 112.763 381.725L112.157 381.392C109.713 380.271 107.048 379.714 104.359 379.761C101.671 379.808 99.027 380.459 96.6235 381.664C95.7071 382.069 94.9146 382.71 94.3268 383.521C93.739 384.332 93.3769 385.285 93.2775 386.282Z" fill="#D6601D"/>
<path opacity="0.1" d="M93.2775 386.282V387.978C93.2477 388.244 93.2477 388.513 93.2775 388.78C93.5048 389.624 93.9121 390.409 94.4714 391.08C95.0306 391.752 95.7287 392.295 96.5175 392.671C98.7099 393.864 101.153 394.523 103.648 394.594C106.766 394.822 109.885 394.177 112.657 392.732C113.662 392.22 114.546 391.497 115.246 390.612C115.612 390.113 115.866 389.539 115.988 388.932C116.055 388.675 116.086 388.41 116.078 388.144V386.403C115.991 385.399 115.637 384.437 115.055 383.615C114.472 382.792 113.681 382.14 112.763 381.725L112.157 381.392C109.713 380.271 107.048 379.714 104.359 379.761C101.671 379.808 99.027 380.459 96.6235 381.664C95.7071 382.069 94.9146 382.71 94.3268 383.521C93.739 384.332 93.3769 385.285 93.2775 386.282Z" fill="black"/>
<path d="M93.2776 386.221C93.2776 389.855 98.3646 392.807 104.663 392.822C110.961 392.838 116.078 389.931 116.094 386.312C116.109 382.694 111.007 379.741 104.708 379.711C98.41 379.681 93.2927 382.603 93.2776 386.221Z" fill="#D6601D"/>
<path d="M100.757 379.499V385.404C100.743 385.499 100.743 385.596 100.757 385.691C100.837 385.983 100.978 386.254 101.171 386.486C101.364 386.719 101.605 386.907 101.877 387.039C102.638 387.447 103.482 387.675 104.345 387.705C105.424 387.778 106.503 387.553 107.464 387.054C107.803 386.867 108.097 386.609 108.327 386.297C108.457 386.127 108.55 385.931 108.599 385.722C108.607 385.631 108.607 385.54 108.599 385.449V379.529C108.57 379.181 108.448 378.847 108.245 378.562C108.043 378.277 107.768 378.052 107.449 377.91L107.237 377.788C106.39 377.403 105.469 377.211 104.539 377.227C103.609 377.242 102.695 377.465 101.862 377.879C101.553 378.03 101.289 378.259 101.095 378.543C100.901 378.827 100.785 379.157 100.757 379.499Z" fill="#D6601D"/>
<path opacity="0.1" d="M100.757 379.499V385.404C100.743 385.499 100.743 385.596 100.757 385.691C100.837 385.983 100.978 386.254 101.171 386.486C101.364 386.719 101.605 386.907 101.877 387.039C102.638 387.447 103.482 387.675 104.345 387.705C105.424 387.778 106.503 387.553 107.464 387.054C107.803 386.867 108.097 386.609 108.327 386.297C108.457 386.127 108.55 385.931 108.599 385.722C108.607 385.631 108.607 385.54 108.599 385.449V379.529C108.57 379.181 108.448 378.847 108.245 378.562C108.043 378.277 107.768 378.052 107.449 377.91L107.237 377.788C106.39 377.403 105.469 377.211 104.539 377.227C103.609 377.242 102.695 377.465 101.862 377.879C101.553 378.03 101.289 378.259 101.095 378.543C100.901 378.827 100.785 379.157 100.757 379.499Z" fill="black"/>
<path d="M100.757 379.484C100.757 380.741 102.513 381.755 104.708 381.77C106.904 381.785 108.66 380.771 108.66 379.514C108.66 378.258 106.904 377.228 104.723 377.228C102.543 377.228 100.772 378.227 100.757 379.484Z" fill="#D6601D"/>
<path opacity="0.5" d="M103.315 379.499C103.315 379.938 103.936 380.302 104.708 380.302C105.48 380.302 106.116 379.953 106.116 379.499C106.116 379.045 105.496 378.697 104.708 378.697C103.921 378.697 103.315 379.045 103.315 379.499Z" fill="#D6601D"/>
<path opacity="0.3" d="M103.315 379.499C103.315 379.938 103.936 380.302 104.708 380.302C105.48 380.302 106.116 379.953 106.116 379.499C106.116 379.045 105.496 378.697 104.708 378.697C103.921 378.697 103.315 379.045 103.315 379.499Z" fill="black"/>
<path d="M294.927 338.046C294.927 338.046 305.389 253.02 303.012 221.968C301.801 206.055 294.11 202.437 282.331 203.345C270.552 204.254 203.179 240.06 203.179 240.06L212.717 263.224L268.841 245.616C268.841 245.616 263.133 278.697 261.816 284.98C260.499 291.263 257.728 299.727 255.548 307.312C254.473 311.036 252.974 315.896 252.974 318.243C252.974 323.784 294.927 338.046 294.927 338.046Z" fill="#FFA8A7"/>
<path d="M268.841 245.616C276.638 244.102 284.45 239.56 286.903 235.821C285.634 239.958 282.842 243.459 279.091 245.616C275.53 247.917 271.758 249.874 267.827 251.46L268.841 245.616Z" fill="#F28F8F"/>
<path d="M400.968 336.547C399.787 332.217 392.187 327.66 369.537 323.845C346.888 320.029 326.282 323.845 326.176 326.524C326.07 329.204 331.763 347.13 357.864 350.385C383.966 353.64 403.36 346.04 400.968 336.547Z" fill="#263238"/>
<path d="M332.838 373.352C332.838 373.352 318.076 277.592 320.196 258.046C322.391 237.849 330.052 228.478 342.906 227.161C359.696 236.926 368.644 260.226 379.378 283.179C390.112 306.131 401.755 355.411 402.361 378.954C402.966 402.497 384.374 419.257 363.269 422.33C342.164 425.404 332.838 373.352 332.838 373.352Z" fill="#FFA8A7"/>
<path d="M356.032 298.394C349.214 292.917 344.61 285.156 343.072 276.547L364.132 269.204L378.379 281.059C378.515 281.362 378.651 281.665 378.803 281.967L379.348 283.163C379.757 284.026 380.165 284.95 380.574 285.904L380.938 286.721L381.876 288.992L382.194 289.78C382.603 290.839 383.027 291.899 383.436 293.02C383.844 294.125 384.268 295.26 384.677 296.426C384.677 296.668 384.844 296.926 384.935 297.168C385.298 298.213 385.661 299.257 386.025 300.347C386.025 300.499 386.131 300.65 386.176 300.817C387.039 303.375 387.872 306.04 388.704 308.78L388.841 309.219C389.234 310.567 389.643 311.929 390.037 313.292C390.037 313.292 370.476 310.476 356.032 298.394Z" fill="#F28F8F"/>
<path d="M338.515 227.993C346.524 224.814 356.305 232.232 361.467 235.563C371.944 242.285 436.108 292.278 451.066 303.996C454.306 305.949 457.607 307.842 460.968 309.628L443.345 337.183C441.894 333.221 439.624 329.61 436.683 326.585C420.695 315.169 389.749 308.947 369.825 301.195C354.337 295.139 351.097 291.748 345.858 282.891C341.801 275.942 327.372 233.232 338.515 227.993Z" fill="#FFA8A7"/>
<path d="M332.505 373.867L326.176 326.524C326.176 326.524 331.854 339.59 361.165 343.012C390.476 346.433 401.71 341.498 400.968 336.547C400.968 336.547 408.629 366.176 405.661 385.449C402.694 404.722 373.307 425.207 373.307 425.207L332.505 373.867Z" fill="#37474F"/>
<path opacity="0.15" d="M345.48 380.302C342.8 380.302 340.272 380.468 337.91 380.62L370.491 421.619H378.061C386.494 414.897 403.451 399.832 405.661 385.449C407.826 371.324 404.299 351.642 402.255 342.134C403.42 353.034 378.985 379.651 345.48 380.302Z" fill="black"/>
<path d="M492.232 269.583C481.634 267.615 476.713 275.245 472.792 281.559C468.871 287.872 462.345 299.454 459.438 301.422C456.531 303.39 454.896 301.422 450.718 304.556C446.539 307.69 443.511 313.64 444.798 315.805L447.826 321.059C446.085 320.877 444.326 321.104 442.689 321.722C441.052 322.34 439.581 323.331 438.394 324.617C433.852 329.159 436.214 329.931 438.772 332.49C441.331 335.048 447.342 346.691 453.367 349.87C453.367 349.87 469.582 344.995 481.361 326.6C493.14 308.205 492.232 269.583 492.232 269.583Z" fill="#D6601D"/>
<path d="M456.683 352.308C456.062 352.196 455.471 351.956 454.948 351.603C454.424 351.249 453.981 350.791 453.644 350.257C453.308 349.723 453.087 349.124 452.995 348.5C452.903 347.876 452.942 347.239 453.11 346.63C454.917 340.953 457.621 335.602 461.119 330.779C465.207 325.01 472.837 314.125 474.124 308.19C475.411 302.255 478.182 285.571 482.709 278.591C487.235 271.612 491.883 267.584 497.849 269.825C503.814 272.066 484.98 316.759 479.454 324.329C473.927 331.899 456.683 352.308 456.683 352.308Z" fill="#37474F"/>
<path d="M460.165 351.339C475.078 343.39 479.999 335.654 484.389 325.601C488.78 315.548 499.09 306.237 501.74 297.198C504.389 288.16 504.692 264.98 494.442 270.597C484.192 276.214 482.058 296.941 477.546 308.917C473.034 320.892 445.54 359.136 460.165 351.339Z" fill="#263238"/>
<path d="M370.536 375.866C377.365 374.836 390.461 377.652 402.33 394.246C415.093 412.065 417.47 443.163 409.476 445.722C409.476 445.722 390.9 443.526 378.167 436.865C365.434 430.203 343.996 385.01 370.536 375.866Z" fill="#263238"/>
<path d="M588.28 524.177C568.492 516.41 552.322 503.072 538.318 488.144C527.069 472.837 478.803 407.357 470.415 398.137C467.387 394.866 460.226 386.464 450.279 384.344C415.048 376.865 349.855 377.91 349.855 377.91L324.783 373.685L274.821 420.71C281.71 428.038 290.37 434.442 302.997 441.043C315.624 447.644 329.325 452.398 347.751 450.839C384.662 447.72 406.797 437.289 426.57 432.671C432.292 431.339 438.227 430.112 442.724 439.499C447.221 448.886 447.584 453.579 460.892 463.572C477.97 476.38 506.13 490.703 518.424 505.964C520.451 509.704 521.659 513.833 521.967 518.076C523.132 534.154 536.637 531.005 547.523 538C553.443 541.8 557.864 546.433 565.01 548.023C571.516 549.361 578.239 549.237 584.692 547.659C590.49 546.266 598.832 542.088 601.679 536.425C605.403 528.901 593.942 526.418 588.28 524.177Z" fill="#FFA8A7"/>
<path d="M588.28 524.177C568.492 516.41 552.322 503.072 538.318 488.144C527.069 472.837 478.803 407.357 470.415 398.137C467.387 394.866 460.226 386.464 450.279 384.344C415.048 376.865 349.855 377.91 349.855 377.91L324.783 373.685L274.821 420.71C281.71 428.038 290.37 434.442 302.997 441.043C315.624 447.644 329.325 452.398 347.751 450.839C384.662 447.72 406.797 437.289 426.57 432.671C432.292 431.339 438.227 430.112 442.724 439.499C447.221 448.886 447.584 453.579 460.892 463.572C477.97 476.38 506.13 490.703 518.424 505.964C520.451 509.704 521.659 513.833 521.967 518.076C523.132 534.154 536.637 531.005 547.523 538C553.443 541.8 557.864 546.433 565.01 548.023C571.516 549.361 578.239 549.237 584.692 547.659C590.49 546.266 598.832 542.088 601.679 536.425C605.403 528.901 593.942 526.418 588.28 524.177Z" fill="#FFA8A7"/>
<path d="M459.711 455.956C455.954 451.802 453.107 446.908 451.354 441.588C449.996 437.153 448.248 432.846 446.13 428.719C439.984 418.121 399.196 431.641 381.134 437.183C380.12 438.697 375.896 443.239 374.367 447.008C396.259 442.557 412.005 436.047 426.494 432.671C432.217 431.339 438.152 430.112 442.648 439.499C447.145 448.886 447.508 453.579 460.816 463.572C467.75 468.765 476.532 474.17 485.328 479.893C475.487 472.277 468.068 464.631 459.711 455.956Z" fill="#F28F8F"/>
<path d="M328.614 373.685C328.614 373.685 364.465 375.427 370.536 375.866C370.536 375.866 357.062 379.514 373.474 412.671C389.885 445.828 409.492 445.676 409.492 445.676C383.754 453.897 370.385 463.148 337.577 459.302C298.47 453.655 274.746 424.374 274.746 424.374L328.614 373.685Z" fill="#455A64"/>
<path opacity="0.15" d="M409.386 445.676L408.492 445.6C405.57 445.252 396.895 443.36 387.145 432.989C379.439 435.08 371.619 436.723 363.723 437.909C334.488 442.194 312.535 437.046 279.863 419.62L274.806 424.359C287.782 438.991 304.429 449.894 323.027 455.941C324.163 456.304 325.313 456.637 326.494 456.971C327.599 457.273 328.705 457.546 329.84 457.818L330.128 457.894C331.172 458.136 332.232 458.348 333.292 458.545L333.852 458.666C335.078 458.893 336.335 459.105 337.607 459.287C339.651 459.529 341.634 459.726 343.542 459.862C345.449 459.999 347.281 460.105 349.053 460.15H351.687H354.215C356.714 460.15 359.091 459.953 361.377 459.726C362.891 459.575 364.405 459.393 365.919 459.166C369.414 458.635 372.877 457.908 376.29 456.986C377.622 456.622 378.939 456.244 380.256 455.85C383.542 454.851 386.782 453.715 390.112 452.519L394.155 451.005C398.924 449.249 403.965 447.402 409.598 445.6L409.386 445.676Z" fill="black"/>
<path d="M208.796 328.538C194.231 333.61 180.454 342.437 192.051 368.326C208.796 405.676 284.193 447.175 322.966 455.987C303.284 426.206 319.666 394.639 332.505 373.897L329.128 348.614C329.128 348.614 317.486 343.027 298.228 328.129C278.97 313.231 271.006 309.189 242.316 317.94C222.634 323.875 208.796 328.538 208.796 328.538Z" fill="#D6601D"/>
<path opacity="0.05" d="M267.781 412.959C228.145 390.249 215.684 370.022 200.136 350.597L189.962 363.027C190.234 363.824 190.537 364.642 190.87 365.48V365.616C191.218 366.494 191.582 367.372 191.99 368.296C199.318 384.632 217.865 401.77 239.666 416.622C242.785 418.742 245.959 420.811 249.189 422.83C250.809 423.844 252.429 424.828 254.049 425.858C265.15 432.527 276.636 438.533 288.447 443.844C299.529 448.95 311.066 453.005 322.906 455.956C318.591 449.551 315.709 442.29 314.458 434.669C300.695 430.476 285.934 423.375 267.781 412.959Z" fill="black"/>
<path d="M197.85 333.58C197.85 333.58 148.962 307.448 141.226 303.935L183.951 278.818L174.867 255.245C174.867 255.245 111.279 277.849 99.167 284.344C92.8233 287.766 90.083 290.612 90.083 295.487C90.083 303.602 97.8195 314.155 108.524 323.284C131.324 342.709 162.24 360.786 192.339 377.38C199.242 382.497 206.434 388.931 206.434 388.931C214.428 392.853 225.934 356.229 197.85 333.58Z" fill="#FFA8A7"/>
<path d="M243.618 242.77C242.106 239.26 239.917 236.082 237.177 233.417C234.437 230.753 231.198 228.654 227.647 227.242C224.096 225.829 220.301 225.129 216.48 225.183C212.658 225.236 208.884 226.042 205.374 227.554C201.864 229.066 198.686 231.255 196.022 233.995C193.357 236.735 191.259 239.973 189.846 243.525C188.433 247.076 187.733 250.871 187.787 254.692C187.841 258.514 188.646 262.288 190.158 265.798C190.37 266.267 190.613 266.721 190.84 267.176L183.436 283.254L172.596 263.133C172.597 261.545 172.01 260.013 170.947 258.833C169.884 257.653 168.422 256.909 166.843 256.744C166.042 256.678 165.237 256.775 164.475 257.029C163.714 257.284 163.011 257.69 162.411 258.224C161.811 258.757 161.325 259.407 160.984 260.134C160.642 260.861 160.451 261.649 160.423 262.452L168.766 263.163C166.945 264.385 165.549 266.141 164.769 268.19C162.77 273.368 169.674 283.92 178.94 293.186C178.94 293.186 192.036 311.672 195.2 314.276C197.249 315.835 199.817 316.55 202.376 316.275L203.164 279.939C208.481 282.809 214.561 283.951 220.557 283.207C226.554 282.463 232.17 279.87 236.625 275.788C241.081 271.705 244.154 266.337 245.418 260.428C246.682 254.519 246.074 248.363 243.678 242.815L243.618 242.77Z" fill="#263238"/>
<path d="M189.886 289.568C188.675 291.248 184.981 289.113 182.059 287.872C179.136 286.63 171.294 286.57 170.991 294.912C170.688 303.254 180.953 310.052 186.843 309.431C196.987 308.387 195.927 302.088 195.927 302.088L210.9 335.018C228.145 344.48 260.242 329.613 240.983 320.272L236.729 310.461C240.407 309.469 243.962 308.068 247.327 306.282C253.383 302.437 255.351 295.472 254.291 287.493C252.566 274.685 249.749 264.935 237.41 243.587C223.784 220.242 195.018 232.323 183.8 248.735C172.581 265.147 189.886 289.568 189.886 289.568Z" fill="#FFA8A7"/>
<path d="M191.067 292.323C190.249 292.686 184.89 288.841 181.983 287.872C178.046 286.509 171.672 261.695 171.672 261.695C171.672 261.695 166.479 257.153 169.326 248.765C171.688 241.922 180.348 237.365 186.343 234.337C197.153 228.871 209.235 222.634 214.549 211.188C214.958 210.295 215.578 209.25 216.562 209.235C217.193 209.303 217.774 209.613 218.182 210.098C220.669 212.9 222.076 216.496 222.149 220.242C222.149 220.605 222.255 221.029 222.588 221.135C222.921 221.241 223.209 220.953 223.406 220.711C224.511 219.368 225.348 217.827 225.874 216.169C226.615 213.913 230.416 219.651 230.703 220.438C231.596 222.932 231.981 225.578 231.836 228.223C231.69 230.867 231.017 233.456 229.855 235.836C227.494 240.559 222.619 243.512 218.182 246.101C208.266 251.884 191.309 257.38 188.947 258.046C185.737 258.939 186.343 262.149 188.175 270.9C189.856 278.576 193.792 291.067 191.067 292.323Z" fill="#263238"/>
<path d="M236.653 310.461C236.653 310.461 218.94 314.216 212.626 313.701C208.934 313.42 205.411 312.038 202.513 309.734C204.576 312.396 207.15 314.619 210.083 316.275C215.896 319.454 238.304 314.367 238.304 314.367L236.653 310.461Z" fill="#F28F8F"/>
<path d="M208.932 264.375L203.618 270.113C202.859 269.375 202.415 268.372 202.378 267.314C202.341 266.255 202.715 265.224 203.421 264.435C203.772 264.058 204.196 263.755 204.668 263.546C205.139 263.338 205.648 263.227 206.164 263.222C206.679 263.216 207.19 263.315 207.666 263.514C208.142 263.712 208.573 264.005 208.932 264.375Z" fill="#263238"/>
<path d="M225.934 293.716L233.731 293.337C233.781 293.852 233.726 294.37 233.57 294.863C233.415 295.355 233.161 295.811 232.824 296.203C232.487 296.595 232.075 296.914 231.612 297.143C231.148 297.371 230.644 297.503 230.128 297.531C229.071 297.561 228.044 297.18 227.262 296.469C226.48 295.757 226.004 294.771 225.934 293.716Z" fill="#F28F8F"/>
<path d="M241.044 255.245L233.474 253.292C233.575 252.789 233.777 252.312 234.069 251.889C234.361 251.467 234.736 251.109 235.171 250.837C235.607 250.565 236.093 250.384 236.6 250.307C237.107 250.229 237.625 250.256 238.122 250.385C239.137 250.67 240.005 251.332 240.548 252.235C241.091 253.139 241.268 254.215 241.044 255.245Z" fill="#263238"/>
<path d="M224.89 267.1L230.052 285.677L239.121 280.166L224.89 267.1Z" fill="#F28F8F"/>
<path d="M210.446 275.412C210.443 276.086 210.64 276.746 211.013 277.308C211.385 277.871 211.916 278.31 212.538 278.57C213.161 278.83 213.846 278.9 214.508 278.77C215.17 278.64 215.778 278.317 216.256 277.841C216.734 277.365 217.06 276.758 217.192 276.097C217.325 275.436 217.258 274.75 217.001 274.127C216.744 273.503 216.307 272.971 215.747 272.596C215.186 272.221 214.527 272.02 213.852 272.02C212.952 272.02 212.087 272.377 211.449 273.013C210.811 273.648 210.45 274.511 210.446 275.412Z" fill="#263238"/>
<path d="M235.064 265.813C235.064 266.46 235.255 267.092 235.615 267.63C235.974 268.168 236.485 268.587 237.082 268.834C237.68 269.082 238.337 269.147 238.972 269.02C239.606 268.894 240.189 268.583 240.646 268.125C241.104 267.668 241.415 267.085 241.541 266.451C241.667 265.817 241.603 265.159 241.355 264.562C241.108 263.964 240.688 263.453 240.151 263.094C239.613 262.735 238.981 262.543 238.334 262.543C237.467 262.543 236.635 262.887 236.021 263.501C235.408 264.114 235.064 264.946 235.064 265.813Z" fill="#263238"/>
<path d="M519.953 521.452C518.666 522.33 520.649 527.886 521.815 529.234C524.238 531.602 527.24 533.293 530.521 534.139C536.482 535.974 542.055 538.889 546.963 542.739C552.99 547.64 560.011 551.173 567.538 553.095C576.486 555.078 586.796 552.534 595.82 547.205C605.267 541.603 604.389 536.259 603.087 532.671L519.953 521.452Z" fill="#37474F"/>
<path d="M540.392 490.354C543.42 493.579 559.892 509.855 572.534 514.018C582.587 517.319 595.698 520.453 601.421 526.6C607.387 532.989 598.515 541.164 586.281 545.842C573.534 550.733 564.873 546.781 556.41 542.542C550.46 539.514 541.694 533.458 537.288 531.02C532.883 528.583 524.722 527.235 521.316 523.617C519.438 521.634 518.091 516.047 517.273 511.172C516.532 506.63 513.534 502.512 515.063 502.27L517.531 504.98C529.067 507.19 541.058 496.486 540.392 490.354Z" fill="#D6601D"/>
<path d="M141.226 303.935C133.994 307.845 126.185 310.574 118.092 312.02C118.092 312.02 130.931 315.306 146.283 306.388L141.226 303.935Z" fill="#F28F8F"/>
</svg>
