<svg width="1920" height="240" viewBox="0 0 1920 240" fill="none" xmlns="http://www.w3.org/2000/svg">
<path d="M1920 68.9999L1884.4 90.2999C1848.93 112 1777.33 154 1706.67 154.3C1635.6 154 1564 112 1493.33 133C1422.27 154 1350.67 240 1280 239.7C1208.93 240 1137.33 154 1066.67 127.7C995.6 101 924 133 853.333 127.7C782.267 122 710.667 79.9999 640 84.9999C568.933 89.9999 497.333 144 426.667 159.7C355.6 176 284 154 213.333 143.7C142.267 133 70.6666 133 35.9999 133L-5.72205e-05 133V36.9999H35.5999C71.0665 36.9999 142.667 36.9999 213.333 36.9999C284.4 36.9999 356 36.9999 426.667 36.9999C497.733 36.9999 569.333 36.9999 640 36.9999C711.067 36.9999 782.667 36.9999 853.333 36.9999C924.4 36.9999 996 36.9999 1066.67 36.9999C1137.73 36.9999 1209.33 36.9999 1280 36.9999C1351.07 36.9999 1422.67 36.9999 1493.33 36.9999C1564.4 36.9999 1636 36.9999 1706.67 36.9999C1777.73 36.9999 1849.33 36.9999 1884 36.9999H1920V68.9999Z" fill="#EA8D59" fill-opacity="0.2"/>
<path d="M1920 32L1884.4 53.3C1848.93 75 1777.33 117 1706.67 117.3C1635.6 117 1564 75 1493.33 96C1422.27 117 1350.67 203 1280 202.7C1208.93 203 1137.33 117 1066.67 90.7C995.6 64 924 96 853.333 90.7C782.267 85 710.667 43 640 48C568.933 53 497.333 107 426.667 122.7C355.6 139 284 117 213.333 106.7C142.267 96 70.6666 96 35.9999 96L-5.72205e-05 96V3.05176e-05H35.5999C71.0665 3.05176e-05 142.667 3.05176e-05 213.333 3.05176e-05C284.4 3.05176e-05 356 3.05176e-05 426.667 3.05176e-05C497.733 3.05176e-05 569.333 3.05176e-05 640 3.05176e-05C711.067 3.05176e-05 782.667 3.05176e-05 853.333 3.05176e-05C924.4 3.05176e-05 996 3.05176e-05 1066.67 3.05176e-05C1137.73 3.05176e-05 1209.33 3.05176e-05 1280 3.05176e-05C1351.07 3.05176e-05 1422.67 3.05176e-05 1493.33 3.05176e-05C1564.4 3.05176e-05 1636 3.05176e-05 1706.67 3.05176e-05C1777.73 3.05176e-05 1849.33 3.05176e-05 1884 3.05176e-05H1920V32Z" fill="#EA8D59"/>
</svg>
