<svg width="1920" height="203" viewBox="0 0 1920 203" fill="none" xmlns="http://www.w3.org/2000/svg">
<path d="M0 171L35.6 149.7C71.0667 128 142.667 86 213.333 85.7C284.4 86 356 128 426.667 107C497.733 86 569.333 -2.27392e-05 640 0.299977C711.067 -2.27392e-05 782.667 86 853.333 112.3C924.4 139 996 107 1066.67 112.3C1137.73 118 1209.33 160 1280 155C1351.07 150 1422.67 96 1493.33 80.3C1564.4 64 1636 86 1706.67 96.3C1777.73 107 1849.33 107 1884 107H1920V203H1884.4C1848.93 203 1777.33 203 1706.67 203C1635.6 203 1564 203 1493.33 203C1422.27 203 1350.67 203 1280 203C1208.93 203 1137.33 203 1066.67 203C995.6 203 924 203 853.333 203C782.267 203 710.667 203 640 203C568.933 203 497.333 203 426.667 203C355.6 203 284 203 213.333 203C142.267 203 70.6667 203 36 203H0V171Z" fill="#EA8D59"/>
</svg>
